<?xml version="1.0" encoding="UTF-8"?>
<svg width="75px" height="73px" viewBox="0 0 75 73" version="1.1" xmlns="http://www.w3.org/2000/svg" xmlns:xlink="http://www.w3.org/1999/xlink">
    <!-- Generator: Sketch 55.2 (78181) - https://sketchapp.com -->
    <title>space</title>
    <desc>Created with Sketch.</desc>
    <g id="Page-1" stroke="none" stroke-width="1" fill="none" fill-rule="evenodd">
        <g id="space" fill="#6200EE" fill-rule="nonzero">
            <path d="M35,12.460938 C21.25,12.460938 10.15625,23.554688 10.15625,37.304688 C10.15625,51.054688 21.25,62.148438 35,62.148438 C48.75,62.148438 59.84375,51.054688 59.84375,37.304688 C59.84375,23.554688 48.75,12.460938 35,12.460938 Z M35,59.023438 C22.96875,59.023438 13.28125,49.335938 13.28125,37.304688 C13.28125,25.273438 22.96875,15.585938 35,15.585938 C47.03125,15.585938 56.71875,25.273438 56.71875,37.304688 C56.71875,49.335938 47.03125,59.023438 35,59.023438 Z" id="Shape"></path>
            <path d="M35,22.617188 C26.875,22.617188 20.3125,29.179688 20.3125,37.304688 C20.3125,38.867188 20.625,40.585938 21.09375,41.992188 C20.15625,43.242188 19.6875,44.804688 19.6875,46.367188 C19.6875,50.585938 23.125,54.023438 27.34375,54.023438 C29.53125,54.023438 31.5625,53.085938 32.96875,51.679688 C33.59375,51.835938 34.21875,51.835938 35,51.835938 C43.125,51.835938 49.6875,45.273438 49.6875,37.148438 C49.6875,29.179688 43.125,22.617188 35,22.617188 Z M27.5,51.054688 C25,51.054688 22.96875,49.023438 22.96875,46.523438 C22.96875,44.023438 25,41.992188 27.5,41.992188 C30,41.992188 32.03125,44.023438 32.03125,46.523438 C32.03125,49.023438 30,51.054688 27.5,51.054688 Z M35,48.867188 C34.84375,48.867188 34.84375,48.867188 34.6875,48.867188 C35,48.085938 35.15625,47.304688 35.15625,46.523438 C35.15625,42.304688 31.71875,38.867188 27.5,38.867188 C26.09375,38.867188 24.84375,39.179688 23.75,39.804688 C23.59375,39.023438 23.4375,38.242188 23.4375,37.304688 C23.4375,30.898438 28.59375,25.742188 35,25.742188 C41.40625,25.742188 46.5625,30.898438 46.5625,37.304688 C46.5625,43.710938 41.40625,48.867188 35,48.867188 Z" id="Shape"></path>
            <path d="M69.84375,33.867188 C68.125,16.054688 53.125,2.30468802 35,2.30468802 C29.84375,2.30468802 24.6875,3.39843802 20,5.74218802 C18.4375,2.46093802 15,0.273438022 11.09375,0.273438022 C5.625,0.273438022 1.25,4.64843802 1.25,10.117188 C1.25,13.554688 2.96875,16.523438 5.625,18.242188 C2.03125,23.867188 0,30.429688 0,37.304688 C0,56.523438 15.625,72.304688 35,72.304688 C50.78125,72.304688 64.375,61.835938 68.59375,46.835938 C72.1875,46.679688 75,43.867188 75,40.273438 C75,37.148438 72.8125,34.492188 69.84375,33.867188 Z M4.53125,9.96093802 C4.53125,6.21093802 7.5,3.24218802 11.25,3.24218802 C15,3.24218802 17.96875,6.21093802 17.96875,9.96093802 C17.96875,13.710938 15,16.679688 11.25,16.679688 C7.5,16.679688 4.53125,13.710938 4.53125,9.96093802 Z M35,69.179688 C17.34375,69.179688 3.125,54.804688 3.125,37.304688 C3.125,30.898438 5,24.804688 8.59375,19.492188 C9.375,19.648438 10.3125,19.804688 11.25,19.804688 C16.71875,19.804688 21.09375,15.429688 21.09375,9.96093802 C21.09375,9.49218802 21.09375,9.17968802 20.9375,8.71093802 C25.3125,6.52343802 30.15625,5.42968802 35,5.42968802 C51.40625,5.42968802 65,17.929688 66.71875,34.023438 C63.90625,34.804688 61.875,37.304688 61.875,40.273438 C61.875,42.929688 63.4375,45.117188 65.625,46.210938 C61.71875,59.804688 49.21875,69.179688 35,69.179688 Z M68.4375,43.710938 C66.5625,43.710938 65,42.148438 65,40.273438 C65,38.398438 66.5625,36.835938 68.4375,36.835938 C70.3125,36.835938 71.875,38.398438 71.875,40.273438 C71.875,42.148438 70.3125,43.710938 68.4375,43.710938 Z" id="Shape"></path>
        </g>
    </g>
</svg>